<svg xmlns="http://www.w3.org/2000/svg" width="30" height="30" viewBox="0 0 30 30">
  <g id="Group_2238" data-name="Group 2238" transform="translate(-183.001 -452.684)">
    <path id="Path_3527" data-name="Path 3527" d="M198,452.684a15,15,0,1,0,15,15A15.018,15.018,0,0,0,198,452.684Zm0,28.005a13.005,13.005,0,1,1,12.992-13.005A13.013,13.013,0,0,1,198,480.689Z" fill="#fff"/>
    <path id="Path_3528" data-name="Path 3528" d="M198,456.211a11.473,11.473,0,1,0,11.551,11.473A11.525,11.525,0,0,0,198,456.211Zm0,18.956a7.483,7.483,0,1,1,7.535-7.483A7.517,7.517,0,0,1,198,475.167Z" fill="#fff"/>
    <path id="Path_3529" data-name="Path 3529" d="M198,462.381l-1.646,3.315-3.681.531,2.664,2.58-.629,3.643,3.293-1.72,3.293,1.72-.629-3.643,2.664-2.58-3.681-.531Z" fill="#fff"/>
  </g>
</svg>
