<svg xmlns="http://www.w3.org/2000/svg" width="29.882" height="30.073" viewBox="0 0 29.882 30.073">
  <g id="Group_2239" data-name="Group 2239" transform="translate(-241.743 -458.212)">
    <path id="Path_3530" data-name="Path 3530" d="M256.684,458.212a15.037,15.037,0,1,0,14.941,15.037A15.006,15.006,0,0,0,256.684,458.212Zm0,28.073a13.037,13.037,0,1,1,12.941-13.036A13,13,0,0,1,256.684,486.285Z" fill="#fff"/>
    <path id="Path_3531" data-name="Path 3531" d="M256.684,461.747a11.5,11.5,0,1,0,11.5,11.5A11.517,11.517,0,0,0,256.684,461.747Zm0,19a7.5,7.5,0,1,1,7.5-7.5A7.511,7.511,0,0,1,256.684,480.75Z" fill="#fff"/>
    <path id="Path_3532" data-name="Path 3532" d="M257.367,472.625v-2.087a1.7,1.7,0,0,1,.995.792l1.26-.9a3.015,3.015,0,0,0-2.159-1.331v-1.415h-1.391v1.4a2.238,2.238,0,0,0-2.183,2.3c0,1.319.756,2.063,2.267,2.507v2.158a1.984,1.984,0,0,1-1.212-.815l-1.283.9a3.369,3.369,0,0,0,2.411,1.344v1.331h1.391v-1.32a2.319,2.319,0,0,0,2.243-2.4C259.706,473.693,258.975,473.069,257.367,472.625Zm-1.211-.384a.915.915,0,0,1-.588-.863.826.826,0,0,1,.588-.828Zm1.211,3.79V474.28c.492.24.659.516.659.9A.859.859,0,0,1,257.367,476.031Z" fill="#fff"/>
  </g>
</svg>
