<svg xmlns="http://www.w3.org/2000/svg" width="30" height="30" viewBox="0 0 30 30">
  <g id="Group_2235" data-name="Group 2235" transform="translate(-163.186 -412.279)">
    <path id="Path_3517" data-name="Path 3517" d="M178.186,412.279a15,15,0,1,0,15,15A15.017,15.017,0,0,0,178.186,412.279Zm0,28.005a13.005,13.005,0,1,1,12.992-13.006A13.014,13.014,0,0,1,178.186,440.284Z" fill="#fff"/>
    <path id="Path_3518" data-name="Path 3518" d="M188.569,427.252a10.232,10.232,0,0,0-.212-2.055l1.143-.233a11.432,11.432,0,0,0-2.494-5.092l-.9.754a10.479,10.479,0,0,0-1.485-1.425l.732-.919a11.6,11.6,0,0,0-5.2-2.31l-.2,1.154a10.407,10.407,0,0,0-1.768-.161c-.1,0-.192.012-.289.014l-.032-1.168a11.624,11.624,0,0,0-5.481,1.546l.593,1.014a10.414,10.414,0,0,0-1.67,1.2l-.785-.878a11.512,11.512,0,0,0-3.2,4.681l1.111.4a10.235,10.235,0,0,0-.505,1.988l-1.167-.171a11.527,11.527,0,0,0-.124,1.685,11.375,11.375,0,0,0,.7,3.944l1.109-.4a10.237,10.237,0,0,0,.9,1.845l-1.008.615a11.6,11.6,0,0,0,4.083,3.945l.589-1.016a10.349,10.349,0,0,0,1.882.845l-.373,1.109a11.713,11.713,0,0,0,5.679.415l-.2-1.151a10.343,10.343,0,0,0,1.987-.557l.43,1.088a11.584,11.584,0,0,0,4.623-3.306l-.9-.75a10.334,10.334,0,0,0,1.168-1.693l1.028.557a11.422,11.422,0,0,0,1.4-5.487v-.038Zm-3.609.026a6.774,6.774,0,1,1-6.774-6.726A6.759,6.759,0,0,1,184.96,427.278Z" fill="#fff"/>
  </g>
</svg>
