<svg xmlns="http://www.w3.org/2000/svg" width="29.882" height="30.073" viewBox="0 0 29.882 30.073">
  <g id="Group_2236" data-name="Group 2236" transform="translate(-124.194 -494.339)">
    <path id="Path_3519" data-name="Path 3519" d="M139.135,494.339a15.037,15.037,0,1,0,14.941,15.037A15.007,15.007,0,0,0,139.135,494.339Zm0,28.073a13.037,13.037,0,1,1,12.941-13.036A13,13,0,0,1,139.135,522.412Z" fill="#fff"/>
    <path id="Path_3520" data-name="Path 3520" d="M142.981,505.1l-3.308,3.305a1.145,1.145,0,0,0-1.279.195,1.118,1.118,0,0,0,0,1.581,1.124,1.124,0,0,0,.794.329,1.1,1.1,0,0,0,.787-.327,1.115,1.115,0,0,0,.208-1.291l3.3-3.3a.349.349,0,0,0,.1-.248.333.333,0,0,0-.1-.247A.358.358,0,0,0,142.981,505.1Zm-3.5,4.586a.414.414,0,0,1-.292.109h0a.416.416,0,0,1-.294-.112.41.41,0,0,1-.122-.292.419.419,0,0,1,.123-.3.417.417,0,0,1,.589,0A.418.418,0,0,1,139.477,509.688Z" fill="#fff"/>
    <path id="Path_3521" data-name="Path 3521" d="M147.267,501.243a11.425,11.425,0,0,0-8.133-3.37h0A11.5,11.5,0,0,0,131,517.508l2.828-2.828a7.5,7.5,0,0,1,5.3-12.807h0a7.506,7.506,0,0,1,5.309,12.81l2.829,2.828A11.516,11.516,0,0,0,147.267,501.243Zm-16.637,8.133-2,.02v-.02c0-.169,0-.336.012-.5l2,.1C130.633,509.105,130.63,509.24,130.63,509.376Zm4.232-7.353-1-1.73q.225-.131.458-.251l.917,1.777C135.107,501.884,134.984,501.952,134.862,502.023Zm8.862.194c-.12-.077-.242-.152-.366-.223l1-1.732c.151.087.3.176.445.269Zm3.906,7.583c.006-.14.01-.281.01-.424l1.638-.033.361.005c0,.2,0,.379-.012.551Z" fill="#fff"/>
  </g>
</svg>
