<svg xmlns="http://www.w3.org/2000/svg" width="30" height="30" viewBox="0 0 30 30">
  <g id="Group_2240" data-name="Group 2240" transform="translate(-112.587 -407.556)">
    <path id="Path_3533" data-name="Path 3533" d="M127.587,407.556a15,15,0,1,0,15,15A15.017,15.017,0,0,0,127.587,407.556Zm0,28.005a13.005,13.005,0,1,1,12.992-13A13.012,13.012,0,0,1,127.587,435.561Z" fill="#fff"/>
    <path id="Path_3534" data-name="Path 3534" d="M132.2,416.559l2.805-2.787a11.515,11.515,0,0,0-7.422-2.692v3.991a7.5,7.5,0,0,1,4.565,1.54Z" fill="#fff"/>
    <path id="Path_3535" data-name="Path 3535" d="M122.259,417.262a7.482,7.482,0,0,1,4.321-2.117v-4.016a11.462,11.462,0,0,0-1.99,22.506l.691-3.883.013-.075a7.464,7.464,0,0,1-3.036-12.415Z" fill="#fff"/>
    <path id="Path_3536" data-name="Path 3536" d="M127.584,430.04a7.582,7.582,0,0,1-1.314-.114l-.7,3.929a11.624,11.624,0,0,0,10.183-3.184l-2.839-2.821A7.569,7.569,0,0,1,127.584,430.04Z" fill="#fff"/>
    <path id="Path_3537" data-name="Path 3537" d="M136.088,414.814c-.114-.122-.217-.253-.337-.371l-2.839,2.822c.119.118.226.246.336.371a7.414,7.414,0,0,1,.324,9.456l.052.052,2.807,2.789a11.387,11.387,0,0,0-.343-15.119Z" fill="#fff"/>
  </g>
</svg>
