<svg xmlns="http://www.w3.org/2000/svg" width="30" height="30" viewBox="0 0 30 30">
  <g id="Group_2237" data-name="Group 2237" transform="translate(-127.587 -456.396)">
    <path id="Path_3522" data-name="Path 3522" d="M142.587,456.4a15,15,0,1,0,15,15A15.017,15.017,0,0,0,142.587,456.4Zm0,28.005a13.005,13.005,0,1,1,12.992-13.006A13.014,13.014,0,0,1,142.587,484.4Z" fill="#fff"/>
    <path id="Path_3523" data-name="Path 3523" d="M135.059,471.268a7.5,7.5,0,0,1,6.1-7.217l2.171-2.157-1.924-1.912a11.515,11.515,0,0,0-10.36,11.23l1.978-1.966Z" fill="#fff"/>
    <path id="Path_3524" data-name="Path 3524" d="M142.712,463.919a7.527,7.527,0,0,1,7.27,6.062l2.167,2.153,1.927-1.915a11.531,11.531,0,0,0-11.3-10.287l1.974,1.962Z" fill="#fff"/>
    <path id="Path_3525" data-name="Path 3525" d="M152.149,473.545l-2.034-2.021a7.505,7.505,0,0,1-6.1,7.216l-2.171,2.157,1.924,1.912a11.516,11.516,0,0,0,10.361-11.23Z" fill="#fff"/>
    <path id="Path_3526" data-name="Path 3526" d="M142.461,478.872a7.526,7.526,0,0,1-7.27-6.062l-2.167-2.153-1.927,1.915a11.53,11.53,0,0,0,11.3,10.287l-1.974-1.962Z" fill="#fff"/>
  </g>
</svg>
